<mxfile host="app.diagrams.net" modified="2024-04-03T12:37:52.866Z" agent="Mozilla/5.0 (Windows NT 10.0; Win64; x64) AppleWebKit/537.36 (KHTML, like Gecko) Chrome/123.0.0.0 Safari/537.36 Edg/123.0.0.0" etag="Floth-taf_a5vntIGsU8" version="24.2.1" type="device">
  <diagram name="Page-1" id="rJyJ1BuYg16nKiaQYhI6">
    <mxGraphModel dx="1386" dy="871" grid="1" gridSize="10" guides="1" tooltips="1" connect="1" arrows="1" fold="1" page="1" pageScale="1" pageWidth="850" pageHeight="1100" math="0" shadow="0">
      <root>
        <mxCell id="0" />
        <mxCell id="1" parent="0" />
        <mxCell id="T_-uD8svrYDQQ7CkaiLS-2" value="Model" style="ellipse;whiteSpace=wrap;html=1;fillColor=#f8cecc;strokeColor=#b85450;" vertex="1" parent="1">
          <mxGeometry x="290" y="370" width="120" height="80" as="geometry" />
        </mxCell>
        <mxCell id="T_-uD8svrYDQQ7CkaiLS-3" value="View" style="ellipse;whiteSpace=wrap;html=1;fillColor=#fff2cc;strokeColor=#d6b656;" vertex="1" parent="1">
          <mxGeometry x="570" y="370" width="120" height="80" as="geometry" />
        </mxCell>
        <mxCell id="T_-uD8svrYDQQ7CkaiLS-4" value="Controller" style="ellipse;whiteSpace=wrap;html=1;fillColor=#dae8fc;strokeColor=#6c8ebf;" vertex="1" parent="1">
          <mxGeometry x="360" y="170" width="120" height="80" as="geometry" />
        </mxCell>
        <mxCell id="T_-uD8svrYDQQ7CkaiLS-5" value="" style="endArrow=classic;html=1;rounded=0;exitX=0;exitY=0.5;exitDx=0;exitDy=0;entryX=1;entryY=0.5;entryDx=0;entryDy=0;" edge="1" parent="1" source="T_-uD8svrYDQQ7CkaiLS-3" target="T_-uD8svrYDQQ7CkaiLS-2">
          <mxGeometry width="50" height="50" relative="1" as="geometry">
            <mxPoint x="400" y="470" as="sourcePoint" />
            <mxPoint x="450" y="420" as="targetPoint" />
          </mxGeometry>
        </mxCell>
        <mxCell id="T_-uD8svrYDQQ7CkaiLS-6" value="Display" style="edgeLabel;html=1;align=center;verticalAlign=middle;resizable=0;points=[];" vertex="1" connectable="0" parent="T_-uD8svrYDQQ7CkaiLS-5">
          <mxGeometry x="0.2" relative="1" as="geometry">
            <mxPoint x="12" y="-10" as="offset" />
          </mxGeometry>
        </mxCell>
        <mxCell id="T_-uD8svrYDQQ7CkaiLS-8" value="" style="endArrow=classic;html=1;rounded=0;exitX=0;exitY=1;exitDx=0;exitDy=0;entryX=0.5;entryY=0;entryDx=0;entryDy=0;" edge="1" parent="1" source="T_-uD8svrYDQQ7CkaiLS-4" target="T_-uD8svrYDQQ7CkaiLS-2">
          <mxGeometry width="50" height="50" relative="1" as="geometry">
            <mxPoint x="400" y="470" as="sourcePoint" />
            <mxPoint x="450" y="420" as="targetPoint" />
          </mxGeometry>
        </mxCell>
        <mxCell id="T_-uD8svrYDQQ7CkaiLS-13" value="Manipulate" style="edgeLabel;html=1;align=center;verticalAlign=middle;resizable=0;points=[];" vertex="1" connectable="0" parent="T_-uD8svrYDQQ7CkaiLS-8">
          <mxGeometry x="-0.0133" y="1" relative="1" as="geometry">
            <mxPoint x="-35" as="offset" />
          </mxGeometry>
        </mxCell>
        <mxCell id="T_-uD8svrYDQQ7CkaiLS-9" value="" style="endArrow=classic;html=1;rounded=0;exitX=1;exitY=0.5;exitDx=0;exitDy=0;entryX=0.5;entryY=0;entryDx=0;entryDy=0;" edge="1" parent="1" source="T_-uD8svrYDQQ7CkaiLS-4" target="T_-uD8svrYDQQ7CkaiLS-3">
          <mxGeometry width="50" height="50" relative="1" as="geometry">
            <mxPoint x="400" y="470" as="sourcePoint" />
            <mxPoint x="450" y="420" as="targetPoint" />
          </mxGeometry>
        </mxCell>
        <mxCell id="T_-uD8svrYDQQ7CkaiLS-12" value="Renders" style="edgeLabel;html=1;align=center;verticalAlign=middle;resizable=0;points=[];" vertex="1" connectable="0" parent="T_-uD8svrYDQQ7CkaiLS-9">
          <mxGeometry x="-0.0965" y="-1" relative="1" as="geometry">
            <mxPoint x="23" y="-13" as="offset" />
          </mxGeometry>
        </mxCell>
        <mxCell id="T_-uD8svrYDQQ7CkaiLS-10" value="" style="endArrow=classic;html=1;rounded=0;entryX=0.769;entryY=0.921;entryDx=0;entryDy=0;exitX=0;exitY=0;exitDx=0;exitDy=0;entryPerimeter=0;" edge="1" parent="1" source="T_-uD8svrYDQQ7CkaiLS-3" target="T_-uD8svrYDQQ7CkaiLS-4">
          <mxGeometry width="50" height="50" relative="1" as="geometry">
            <mxPoint x="400" y="470" as="sourcePoint" />
            <mxPoint x="450" y="420" as="targetPoint" />
          </mxGeometry>
        </mxCell>
        <mxCell id="T_-uD8svrYDQQ7CkaiLS-11" value="Send Request" style="edgeLabel;html=1;align=center;verticalAlign=middle;resizable=0;points=[];" vertex="1" connectable="0" parent="T_-uD8svrYDQQ7CkaiLS-10">
          <mxGeometry x="0.0287" y="4" relative="1" as="geometry">
            <mxPoint x="-19" y="23" as="offset" />
          </mxGeometry>
        </mxCell>
      </root>
    </mxGraphModel>
  </diagram>
</mxfile>
